G04 EAGLE Gerber RS-274X export*
G75*
%MOMM*%
%FSLAX34Y34*%
%LPD*%
%IN*%
%IPPOS*%
%AMOC8*
5,1,8,0,0,1.08239X$1,22.5*%
G01*
%ADD10C,0.254000*%


D10*
X0Y0D02*
X1269800Y0D01*
X1269800Y1016000D01*
X0Y1016000D01*
X0Y0D01*
X735000Y858822D02*
X734926Y856467D01*
X734778Y854115D01*
X734556Y851769D01*
X734261Y849431D01*
X733892Y847104D01*
X733451Y844789D01*
X732937Y842489D01*
X732351Y840207D01*
X731693Y837944D01*
X730965Y835703D01*
X730167Y833486D01*
X729300Y831295D01*
X728364Y829133D01*
X727360Y827001D01*
X726291Y824901D01*
X725155Y822836D01*
X723956Y820808D01*
X722693Y818818D01*
X721369Y816869D01*
X719984Y814963D01*
X718540Y813101D01*
X717037Y811285D01*
X715479Y809518D01*
X713866Y807800D01*
X712200Y806134D01*
X710482Y804521D01*
X708715Y802963D01*
X706899Y801461D01*
X705037Y800016D01*
X703131Y798631D01*
X701182Y797307D01*
X699192Y796044D01*
X697164Y794845D01*
X695099Y793709D01*
X693000Y792640D01*
X690867Y791636D01*
X688705Y790701D01*
X686514Y789833D01*
X684297Y789035D01*
X682056Y788307D01*
X679793Y787649D01*
X677511Y787063D01*
X675211Y786549D01*
X672896Y786108D01*
X670569Y785739D01*
X668231Y785444D01*
X665885Y785222D01*
X663533Y785074D01*
X661178Y785000D01*
X658822Y785000D01*
X656467Y785074D01*
X654115Y785222D01*
X651769Y785444D01*
X649431Y785739D01*
X647104Y786108D01*
X644789Y786549D01*
X642489Y787063D01*
X640207Y787649D01*
X637944Y788307D01*
X635703Y789035D01*
X633486Y789833D01*
X631295Y790701D01*
X629133Y791636D01*
X627001Y792640D01*
X624901Y793709D01*
X622836Y794845D01*
X620808Y796044D01*
X618818Y797307D01*
X616869Y798631D01*
X614963Y800016D01*
X613101Y801461D01*
X611285Y802963D01*
X609518Y804521D01*
X607800Y806134D01*
X606134Y807800D01*
X604521Y809518D01*
X602963Y811285D01*
X601461Y813101D01*
X600016Y814963D01*
X598631Y816869D01*
X597307Y818818D01*
X596044Y820808D01*
X594845Y822836D01*
X593709Y824901D01*
X592640Y827001D01*
X591636Y829133D01*
X590701Y831295D01*
X589833Y833486D01*
X589035Y835703D01*
X588307Y837944D01*
X587649Y840207D01*
X587063Y842489D01*
X586549Y844789D01*
X586108Y847104D01*
X585739Y849431D01*
X585444Y851769D01*
X585222Y854115D01*
X585074Y856467D01*
X585000Y858822D01*
X585000Y861178D01*
X585074Y863533D01*
X585222Y865885D01*
X585444Y868231D01*
X585739Y870569D01*
X586108Y872896D01*
X586549Y875211D01*
X587063Y877511D01*
X587649Y879793D01*
X588307Y882056D01*
X589035Y884297D01*
X589833Y886514D01*
X590701Y888705D01*
X591636Y890867D01*
X592640Y893000D01*
X593709Y895099D01*
X594845Y897164D01*
X596044Y899192D01*
X597307Y901182D01*
X598631Y903131D01*
X600016Y905037D01*
X601461Y906899D01*
X602963Y908715D01*
X604521Y910482D01*
X606134Y912200D01*
X607800Y913866D01*
X609518Y915479D01*
X611285Y917037D01*
X613101Y918540D01*
X614963Y919984D01*
X616869Y921369D01*
X618818Y922693D01*
X620808Y923956D01*
X622836Y925155D01*
X624901Y926291D01*
X627001Y927360D01*
X629133Y928364D01*
X631295Y929300D01*
X633486Y930167D01*
X635703Y930965D01*
X637944Y931693D01*
X640207Y932351D01*
X642489Y932937D01*
X644789Y933451D01*
X647104Y933892D01*
X649431Y934261D01*
X651769Y934556D01*
X654115Y934778D01*
X656467Y934926D01*
X658822Y935000D01*
X661178Y935000D01*
X663533Y934926D01*
X665885Y934778D01*
X668231Y934556D01*
X670569Y934261D01*
X672896Y933892D01*
X675211Y933451D01*
X677511Y932937D01*
X679793Y932351D01*
X682056Y931693D01*
X684297Y930965D01*
X686514Y930167D01*
X688705Y929300D01*
X690867Y928364D01*
X693000Y927360D01*
X695099Y926291D01*
X697164Y925155D01*
X699192Y923956D01*
X701182Y922693D01*
X703131Y921369D01*
X705037Y919984D01*
X706899Y918540D01*
X708715Y917037D01*
X710482Y915479D01*
X712200Y913866D01*
X713866Y912200D01*
X715479Y910482D01*
X717037Y908715D01*
X718540Y906899D01*
X719984Y905037D01*
X721369Y903131D01*
X722693Y901182D01*
X723956Y899192D01*
X725155Y897164D01*
X726291Y895099D01*
X727360Y893000D01*
X728364Y890867D01*
X729300Y888705D01*
X730167Y886514D01*
X730965Y884297D01*
X731693Y882056D01*
X732351Y879793D01*
X732937Y877511D01*
X733451Y875211D01*
X733892Y872896D01*
X734261Y870569D01*
X734556Y868231D01*
X734778Y865885D01*
X734926Y863533D01*
X735000Y861178D01*
X735000Y858822D01*
X583812Y715010D02*
X583039Y715078D01*
X582274Y715212D01*
X581524Y715413D01*
X580795Y715679D01*
X580091Y716007D01*
X579419Y716395D01*
X578783Y716840D01*
X578188Y717339D01*
X577639Y717888D01*
X577140Y718483D01*
X576695Y719119D01*
X576307Y719791D01*
X575979Y720495D01*
X575713Y721224D01*
X575512Y721974D01*
X575378Y722739D01*
X575310Y723512D01*
X575310Y724288D01*
X575378Y725061D01*
X575512Y725826D01*
X575713Y726576D01*
X575979Y727305D01*
X576307Y728009D01*
X576695Y728681D01*
X577140Y729317D01*
X577639Y729912D01*
X578188Y730461D01*
X578783Y730960D01*
X579419Y731405D01*
X580091Y731793D01*
X580795Y732121D01*
X581524Y732387D01*
X582274Y732588D01*
X583039Y732722D01*
X583812Y732790D01*
X584588Y732790D01*
X585361Y732722D01*
X586126Y732588D01*
X586876Y732387D01*
X587605Y732121D01*
X588309Y731793D01*
X588981Y731405D01*
X589617Y730960D01*
X590212Y730461D01*
X590761Y729912D01*
X591260Y729317D01*
X591705Y728681D01*
X592093Y728009D01*
X592421Y727305D01*
X592687Y726576D01*
X592888Y725826D01*
X593022Y725061D01*
X593090Y724288D01*
X593090Y723512D01*
X593022Y722739D01*
X592888Y721974D01*
X592687Y721224D01*
X592421Y720495D01*
X592093Y719791D01*
X591705Y719119D01*
X591260Y718483D01*
X590761Y717888D01*
X590212Y717339D01*
X589617Y716840D01*
X588981Y716395D01*
X588309Y716007D01*
X587605Y715679D01*
X586876Y715413D01*
X586126Y715212D01*
X585361Y715078D01*
X584588Y715010D01*
X583812Y715010D01*
X736212Y715010D02*
X735439Y715078D01*
X734674Y715212D01*
X733924Y715413D01*
X733195Y715679D01*
X732491Y716007D01*
X731819Y716395D01*
X731183Y716840D01*
X730588Y717339D01*
X730039Y717888D01*
X729540Y718483D01*
X729095Y719119D01*
X728707Y719791D01*
X728379Y720495D01*
X728113Y721224D01*
X727912Y721974D01*
X727778Y722739D01*
X727710Y723512D01*
X727710Y724288D01*
X727778Y725061D01*
X727912Y725826D01*
X728113Y726576D01*
X728379Y727305D01*
X728707Y728009D01*
X729095Y728681D01*
X729540Y729317D01*
X730039Y729912D01*
X730588Y730461D01*
X731183Y730960D01*
X731819Y731405D01*
X732491Y731793D01*
X733195Y732121D01*
X733924Y732387D01*
X734674Y732588D01*
X735439Y732722D01*
X736212Y732790D01*
X736988Y732790D01*
X737761Y732722D01*
X738526Y732588D01*
X739276Y732387D01*
X740005Y732121D01*
X740709Y731793D01*
X741381Y731405D01*
X742017Y730960D01*
X742612Y730461D01*
X743161Y729912D01*
X743660Y729317D01*
X744105Y728681D01*
X744493Y728009D01*
X744821Y727305D01*
X745087Y726576D01*
X745288Y725826D01*
X745422Y725061D01*
X745490Y724288D01*
X745490Y723512D01*
X745422Y722739D01*
X745288Y721974D01*
X745087Y721224D01*
X744821Y720495D01*
X744493Y719791D01*
X744105Y719119D01*
X743660Y718483D01*
X743161Y717888D01*
X742612Y717339D01*
X742017Y716840D01*
X741381Y716395D01*
X740709Y716007D01*
X740005Y715679D01*
X739276Y715413D01*
X738526Y715212D01*
X737761Y715078D01*
X736988Y715010D01*
X736212Y715010D01*
X736212Y308610D02*
X735439Y308678D01*
X734674Y308812D01*
X733924Y309013D01*
X733195Y309279D01*
X732491Y309607D01*
X731819Y309995D01*
X731183Y310440D01*
X730588Y310939D01*
X730039Y311488D01*
X729540Y312083D01*
X729095Y312719D01*
X728707Y313391D01*
X728379Y314095D01*
X728113Y314824D01*
X727912Y315574D01*
X727778Y316339D01*
X727710Y317112D01*
X727710Y317888D01*
X727778Y318661D01*
X727912Y319426D01*
X728113Y320176D01*
X728379Y320905D01*
X728707Y321609D01*
X729095Y322281D01*
X729540Y322917D01*
X730039Y323512D01*
X730588Y324061D01*
X731183Y324560D01*
X731819Y325005D01*
X732491Y325393D01*
X733195Y325721D01*
X733924Y325987D01*
X734674Y326188D01*
X735439Y326322D01*
X736212Y326390D01*
X736988Y326390D01*
X737761Y326322D01*
X738526Y326188D01*
X739276Y325987D01*
X740005Y325721D01*
X740709Y325393D01*
X741381Y325005D01*
X742017Y324560D01*
X742612Y324061D01*
X743161Y323512D01*
X743660Y322917D01*
X744105Y322281D01*
X744493Y321609D01*
X744821Y320905D01*
X745087Y320176D01*
X745288Y319426D01*
X745422Y318661D01*
X745490Y317888D01*
X745490Y317112D01*
X745422Y316339D01*
X745288Y315574D01*
X745087Y314824D01*
X744821Y314095D01*
X744493Y313391D01*
X744105Y312719D01*
X743660Y312083D01*
X743161Y311488D01*
X742612Y310939D01*
X742017Y310440D01*
X741381Y309995D01*
X740709Y309607D01*
X740005Y309279D01*
X739276Y309013D01*
X738526Y308812D01*
X737761Y308678D01*
X736988Y308610D01*
X736212Y308610D01*
X583812Y308610D02*
X583039Y308678D01*
X582274Y308812D01*
X581524Y309013D01*
X580795Y309279D01*
X580091Y309607D01*
X579419Y309995D01*
X578783Y310440D01*
X578188Y310939D01*
X577639Y311488D01*
X577140Y312083D01*
X576695Y312719D01*
X576307Y313391D01*
X575979Y314095D01*
X575713Y314824D01*
X575512Y315574D01*
X575378Y316339D01*
X575310Y317112D01*
X575310Y317888D01*
X575378Y318661D01*
X575512Y319426D01*
X575713Y320176D01*
X575979Y320905D01*
X576307Y321609D01*
X576695Y322281D01*
X577140Y322917D01*
X577639Y323512D01*
X578188Y324061D01*
X578783Y324560D01*
X579419Y325005D01*
X580091Y325393D01*
X580795Y325721D01*
X581524Y325987D01*
X582274Y326188D01*
X583039Y326322D01*
X583812Y326390D01*
X584588Y326390D01*
X585361Y326322D01*
X586126Y326188D01*
X586876Y325987D01*
X587605Y325721D01*
X588309Y325393D01*
X588981Y325005D01*
X589617Y324560D01*
X590212Y324061D01*
X590761Y323512D01*
X591260Y322917D01*
X591705Y322281D01*
X592093Y321609D01*
X592421Y320905D01*
X592687Y320176D01*
X592888Y319426D01*
X593022Y318661D01*
X593090Y317888D01*
X593090Y317112D01*
X593022Y316339D01*
X592888Y315574D01*
X592687Y314824D01*
X592421Y314095D01*
X592093Y313391D01*
X591705Y312719D01*
X591260Y312083D01*
X590761Y311488D01*
X590212Y310939D01*
X589617Y310440D01*
X588981Y309995D01*
X588309Y309607D01*
X587605Y309279D01*
X586876Y309013D01*
X586126Y308812D01*
X585361Y308678D01*
X584588Y308610D01*
X583812Y308610D01*
X77500Y952000D02*
X77429Y951003D01*
X77286Y950013D01*
X77074Y949036D01*
X76792Y948076D01*
X76443Y947139D01*
X76027Y946229D01*
X75548Y945352D01*
X75007Y944510D01*
X74408Y943710D01*
X73753Y942954D01*
X73046Y942247D01*
X72290Y941592D01*
X71490Y940993D01*
X70648Y940452D01*
X69771Y939973D01*
X68861Y939557D01*
X67924Y939208D01*
X66965Y938926D01*
X65987Y938714D01*
X64998Y938571D01*
X64000Y938500D01*
X63000Y938500D01*
X62003Y938571D01*
X61013Y938714D01*
X60036Y938926D01*
X59076Y939208D01*
X58139Y939557D01*
X57229Y939973D01*
X56352Y940452D01*
X55510Y940993D01*
X54710Y941592D01*
X53954Y942247D01*
X53247Y942954D01*
X52592Y943710D01*
X51993Y944510D01*
X51452Y945352D01*
X50973Y946229D01*
X50557Y947139D01*
X50208Y948076D01*
X49926Y949036D01*
X49714Y950013D01*
X49571Y951003D01*
X49500Y952000D01*
X49500Y953000D01*
X49571Y953998D01*
X49714Y954987D01*
X49926Y955965D01*
X50208Y956924D01*
X50557Y957861D01*
X50973Y958771D01*
X51452Y959648D01*
X51993Y960490D01*
X52592Y961290D01*
X53247Y962046D01*
X53954Y962753D01*
X54710Y963408D01*
X55510Y964007D01*
X56352Y964548D01*
X57229Y965027D01*
X58139Y965443D01*
X59076Y965792D01*
X60036Y966074D01*
X61013Y966286D01*
X62003Y966429D01*
X63000Y966500D01*
X64000Y966500D01*
X64998Y966429D01*
X65987Y966286D01*
X66965Y966074D01*
X67924Y965792D01*
X68861Y965443D01*
X69771Y965027D01*
X70648Y964548D01*
X71490Y964007D01*
X72290Y963408D01*
X73046Y962753D01*
X73753Y962046D01*
X74408Y961290D01*
X75007Y960490D01*
X75548Y959648D01*
X76027Y958771D01*
X76443Y957861D01*
X76792Y956924D01*
X77074Y955965D01*
X77286Y954987D01*
X77429Y953998D01*
X77500Y953000D01*
X77500Y952000D01*
X77500Y63000D02*
X77429Y62003D01*
X77286Y61013D01*
X77074Y60036D01*
X76792Y59076D01*
X76443Y58139D01*
X76027Y57229D01*
X75548Y56352D01*
X75007Y55510D01*
X74408Y54710D01*
X73753Y53954D01*
X73046Y53247D01*
X72290Y52592D01*
X71490Y51993D01*
X70648Y51452D01*
X69771Y50973D01*
X68861Y50557D01*
X67924Y50208D01*
X66965Y49926D01*
X65987Y49714D01*
X64998Y49571D01*
X64000Y49500D01*
X63000Y49500D01*
X62003Y49571D01*
X61013Y49714D01*
X60036Y49926D01*
X59076Y50208D01*
X58139Y50557D01*
X57229Y50973D01*
X56352Y51452D01*
X55510Y51993D01*
X54710Y52592D01*
X53954Y53247D01*
X53247Y53954D01*
X52592Y54710D01*
X51993Y55510D01*
X51452Y56352D01*
X50973Y57229D01*
X50557Y58139D01*
X50208Y59076D01*
X49926Y60036D01*
X49714Y61013D01*
X49571Y62003D01*
X49500Y63000D01*
X49500Y64000D01*
X49571Y64998D01*
X49714Y65987D01*
X49926Y66965D01*
X50208Y67924D01*
X50557Y68861D01*
X50973Y69771D01*
X51452Y70648D01*
X51993Y71490D01*
X52592Y72290D01*
X53247Y73046D01*
X53954Y73753D01*
X54710Y74408D01*
X55510Y75007D01*
X56352Y75548D01*
X57229Y76027D01*
X58139Y76443D01*
X59076Y76792D01*
X60036Y77074D01*
X61013Y77286D01*
X62003Y77429D01*
X63000Y77500D01*
X64000Y77500D01*
X64998Y77429D01*
X65987Y77286D01*
X66965Y77074D01*
X67924Y76792D01*
X68861Y76443D01*
X69771Y76027D01*
X70648Y75548D01*
X71490Y75007D01*
X72290Y74408D01*
X73046Y73753D01*
X73753Y73046D01*
X74408Y72290D01*
X75007Y71490D01*
X75548Y70648D01*
X76027Y69771D01*
X76443Y68861D01*
X76792Y67924D01*
X77074Y66965D01*
X77286Y65987D01*
X77429Y64998D01*
X77500Y64000D01*
X77500Y63000D01*
X1220500Y952000D02*
X1220429Y951003D01*
X1220286Y950013D01*
X1220074Y949036D01*
X1219792Y948076D01*
X1219443Y947139D01*
X1219027Y946229D01*
X1218548Y945352D01*
X1218007Y944510D01*
X1217408Y943710D01*
X1216753Y942954D01*
X1216046Y942247D01*
X1215290Y941592D01*
X1214490Y940993D01*
X1213648Y940452D01*
X1212771Y939973D01*
X1211861Y939557D01*
X1210924Y939208D01*
X1209965Y938926D01*
X1208987Y938714D01*
X1207998Y938571D01*
X1207000Y938500D01*
X1206000Y938500D01*
X1205003Y938571D01*
X1204013Y938714D01*
X1203036Y938926D01*
X1202076Y939208D01*
X1201139Y939557D01*
X1200229Y939973D01*
X1199352Y940452D01*
X1198510Y940993D01*
X1197710Y941592D01*
X1196954Y942247D01*
X1196247Y942954D01*
X1195592Y943710D01*
X1194993Y944510D01*
X1194452Y945352D01*
X1193973Y946229D01*
X1193557Y947139D01*
X1193208Y948076D01*
X1192926Y949036D01*
X1192714Y950013D01*
X1192571Y951003D01*
X1192500Y952000D01*
X1192500Y953000D01*
X1192571Y953998D01*
X1192714Y954987D01*
X1192926Y955965D01*
X1193208Y956924D01*
X1193557Y957861D01*
X1193973Y958771D01*
X1194452Y959648D01*
X1194993Y960490D01*
X1195592Y961290D01*
X1196247Y962046D01*
X1196954Y962753D01*
X1197710Y963408D01*
X1198510Y964007D01*
X1199352Y964548D01*
X1200229Y965027D01*
X1201139Y965443D01*
X1202076Y965792D01*
X1203036Y966074D01*
X1204013Y966286D01*
X1205003Y966429D01*
X1206000Y966500D01*
X1207000Y966500D01*
X1207998Y966429D01*
X1208987Y966286D01*
X1209965Y966074D01*
X1210924Y965792D01*
X1211861Y965443D01*
X1212771Y965027D01*
X1213648Y964548D01*
X1214490Y964007D01*
X1215290Y963408D01*
X1216046Y962753D01*
X1216753Y962046D01*
X1217408Y961290D01*
X1218007Y960490D01*
X1218548Y959648D01*
X1219027Y958771D01*
X1219443Y957861D01*
X1219792Y956924D01*
X1220074Y955965D01*
X1220286Y954987D01*
X1220429Y953998D01*
X1220500Y953000D01*
X1220500Y952000D01*
X1192500Y63000D02*
X1192571Y62003D01*
X1192714Y61013D01*
X1192926Y60036D01*
X1193208Y59076D01*
X1193557Y58139D01*
X1193973Y57229D01*
X1194452Y56352D01*
X1194993Y55510D01*
X1195592Y54710D01*
X1196247Y53954D01*
X1196954Y53247D01*
X1197710Y52592D01*
X1198510Y51993D01*
X1199352Y51452D01*
X1200229Y50973D01*
X1201139Y50557D01*
X1202076Y50208D01*
X1203036Y49926D01*
X1204013Y49714D01*
X1205003Y49571D01*
X1206000Y49500D01*
X1207000Y49500D01*
X1207998Y49571D01*
X1208987Y49714D01*
X1209965Y49926D01*
X1210924Y50208D01*
X1211861Y50557D01*
X1212771Y50973D01*
X1213648Y51452D01*
X1214490Y51993D01*
X1215290Y52592D01*
X1216046Y53247D01*
X1216753Y53954D01*
X1217408Y54710D01*
X1218007Y55510D01*
X1218548Y56352D01*
X1219027Y57229D01*
X1219443Y58139D01*
X1219792Y59076D01*
X1220074Y60036D01*
X1220286Y61013D01*
X1220429Y62003D01*
X1220500Y63000D01*
X1220500Y64000D01*
X1220429Y64998D01*
X1220286Y65987D01*
X1220074Y66965D01*
X1219792Y67924D01*
X1219443Y68861D01*
X1219027Y69771D01*
X1218548Y70648D01*
X1218007Y71490D01*
X1217408Y72290D01*
X1216753Y73046D01*
X1216046Y73753D01*
X1215290Y74408D01*
X1214490Y75007D01*
X1213648Y75548D01*
X1212771Y76027D01*
X1211861Y76443D01*
X1210924Y76792D01*
X1209965Y77074D01*
X1208987Y77286D01*
X1207998Y77429D01*
X1207000Y77500D01*
X1206000Y77500D01*
X1205003Y77429D01*
X1204013Y77286D01*
X1203036Y77074D01*
X1202076Y76792D01*
X1201139Y76443D01*
X1200229Y76027D01*
X1199352Y75548D01*
X1198510Y75007D01*
X1197710Y74408D01*
X1196954Y73753D01*
X1196247Y73046D01*
X1195592Y72290D01*
X1194993Y71490D01*
X1194452Y70648D01*
X1193973Y69771D01*
X1193557Y68861D01*
X1193208Y67924D01*
X1192926Y66965D01*
X1192714Y65987D01*
X1192571Y64998D01*
X1192500Y64000D01*
X1192500Y63000D01*
M02*
