M48
;GenerationSoftware,Autodesk,EAGLE,9.5.1*%
;CreationDate,2020-12-13T19:38:27Z*%
FMAT,2
ICI,OFF
METRIC,TZ,000.000
T9C0.800
T8C0.813
T7C1.016
T6C1.200
T5C1.700
T4C1.778
T3C2.800
T2C15.000
%
G90
M71
T2
X66000Y86000
T3
X6350Y95250
X6350Y6350
X120650Y95250
X120650Y6350
T4
X73660Y72390
X73660Y31750
X58420Y31750
X58420Y72390
T5
X32700Y12636
X24300Y76640
X24300Y13836
X32700Y77840
T6
X26750Y8486
X26750Y81990
X30250Y81990
T7
X90449Y31039
X90449Y87071
X94971Y31039
X90449Y37541
X94971Y37541
X106959Y14529
X111481Y14529
X106959Y21031
X111481Y21031
X90449Y14529
X94971Y14529
X90449Y21031
X94971Y21031
X106959Y80569
X111481Y80569
X106959Y87071
X111481Y87071
X90449Y80569
X94971Y80569
X94971Y87071
X106959Y37541
X106959Y64059
X111481Y64059
X106959Y70561
X111481Y70561
X90449Y64059
X94971Y64059
X90449Y70561
X94971Y70561
X106959Y47549
X111481Y47549
X106959Y54051
X111481Y54051
X90449Y47549
X94971Y47549
X90449Y54051
X94971Y54051
X106959Y31039
X111481Y31039
X111481Y37541
T8
X61973Y8617
X70507Y65627
X67967Y65627
X52070Y19050
X66523Y26156
X69850Y8660
X24320Y93980
X24320Y91440
X30500Y90000
X52070Y57150
X52070Y13970
X65270Y54000
X64000Y55905
X62730Y54000
X66455Y41867
X63915Y41867
X77470Y8660
T9
X58420Y34290
X58420Y36830
X58420Y39370
X58420Y41910
X58420Y44450
X58420Y46990
X58420Y49530
X58420Y52070
X58420Y54610
X58420Y57150
X58420Y59690
X58420Y62230
X58420Y64770
X58420Y67310
X58420Y69850
X73660Y34290
X73660Y36830
X73660Y39370
X73660Y41910
X73660Y44450
X73660Y46990
X73660Y49530
X73660Y52070
X73660Y54610
X73660Y57150
X73660Y59690
X73660Y62230
X73660Y64770
X73660Y67310
X73660Y69850
M30